<svg width="35" height="28" viewBox="0 0 35 28" fill="none" xmlns="http://www.w3.org/2000/svg">
<g id="Iconly/Light/Discount">
<g id="Discount">
<path id="Stroke 1" d="M6.9922 6.95023C6.9922 5.16924 8.46803 3.72621 10.2895 3.72478H11.7901C12.6607 3.72478 13.4949 3.38684 14.1132 2.78795L15.1618 1.76128C16.4466 0.497911 18.5349 0.492207 19.827 1.74845L19.8284 1.74987L19.8416 1.76128L20.8916 2.78795C21.5099 3.38826 22.3441 3.72478 23.2147 3.72478H24.7139C26.5353 3.72478 28.0126 5.16782 28.0126 6.95023V8.41465C28.0126 9.26593 28.3568 10.083 28.9707 10.6876L30.0207 11.7142C31.3128 12.9705 31.3201 15.0124 30.0353 16.2758L30.0339 16.2772L30.0207 16.29L28.9707 17.3167C28.3568 17.9199 28.0126 18.7355 28.0126 19.5868V21.0541C28.0126 22.835 26.5368 24.2781 24.7153 24.2781H24.7139H23.2118C22.3412 24.2781 21.5055 24.616 20.8887 25.2163L19.8387 26.2416C18.5553 27.5049 16.4684 27.5121 15.1764 26.2587C15.1749 26.2573 15.1734 26.2558 15.172 26.2544L15.1589 26.2416L14.1103 25.2163C13.4934 24.616 12.6578 24.2795 11.7872 24.2781H10.2895C8.46803 24.2781 6.9922 22.835 6.9922 21.0541V19.5839C6.9922 18.7327 6.64658 17.917 6.03262 17.3139L4.98408 16.2872C3.69199 15.0324 3.6847 12.9919 4.96803 11.7285C4.96803 11.7271 4.96949 11.7257 4.97095 11.7242L4.98408 11.7114L6.03262 10.6847C6.64658 10.0801 6.9922 9.2645 6.9922 8.4118V6.95023" stroke="#EA0042" stroke-width="1.5" stroke-linecap="round" stroke-linejoin="round"/>
<path id="Stroke 3" d="M13.7539 17.667L21.2497 10.3378" stroke="#645BA3" stroke-width="1.5" stroke-linecap="round" stroke-linejoin="round"/>
<path id="Stroke 11" d="M21.1392 17.5648H21.1504" stroke="#645BA3" stroke-width="2" stroke-linecap="round" stroke-linejoin="round"/>
<path id="Stroke 11_2" d="M13.8472 10.4352H13.8584" stroke="#645BA3" stroke-width="2" stroke-linecap="round" stroke-linejoin="round"/>
</g>
</g>
</svg>
