<svg width="29" height="28" viewBox="0 0 29 28" fill="none" xmlns="http://www.w3.org/2000/svg">
<path d="M26.7189 18.8103C29.3787 11.4338 28.9627 1 14.9369 1C-0.210826 1 0.0840296 11.2286 1.80994 18.16M26.7189 18.8103C25.6069 21.8942 23.8846 24.8027 22.2306 27C19.9865 26.48 16.0592 24.4 18.3034 20.24C20.5475 16.08 24.8488 17.5536 26.7189 18.8103ZM1.80994 18.16C2.64464 21.5122 4.31444 24.6834 5.96039 27C8.39161 26.3067 12.5808 23.88 9.88785 19.72C7.19488 15.56 3.38051 16.9467 1.80994 18.16Z" stroke="#EA0042" stroke-width="1.5" stroke-linecap="round" stroke-linejoin="round"/>
<circle cx="21" cy="24" r="1" fill="#645BA3"/>
<circle cx="5" cy="20" r="1" fill="#645BA3"/>
</svg>
