<svg width="73" height="65" viewBox="0 0 73 65" fill="none" xmlns="http://www.w3.org/2000/svg">
<path d="M30.8147 11.5539L32.6034 30H34.6042V11.317C34.1113 10.8645 33.4971 10.6055 32.8324 10.6055C31.4688 10.6055 30.9919 11.4248 30.8147 11.5539Z" fill="#F4F4F4"/>
<path d="M38.1477 10.6055C37.4875 10.6055 36.862 10.8696 36.376 11.3177V30H38.3605L40.2618 11.6597C40.0839 11.5218 39.4969 10.6055 38.1477 10.6055Z" fill="#F4F4F4"/>
<path d="M27.5173 10.6055C26.275 10.6055 25.1841 11.4766 24.9229 12.6774L28.4032 30H30.824L28.9884 11.0706C28.5541 10.7733 28.0516 10.6055 27.5173 10.6055Z" fill="#F4F4F4"/>
<path d="M43.4629 10.6055C42.983 10.6055 42.5211 10.7537 42.112 11.0018L40.1423 30H42.5771C42.5892 29.9416 45.5237 15.3219 46.0557 12.7521C45.8342 11.5084 44.7442 10.6055 43.4629 10.6055Z" fill="#F4F4F4"/>
<path d="M43.3895 5.34897C43.2294 4.48207 42.809 3.68385 42.1671 3.04611C41.3262 2.21186 40.1723 1.77293 39.0141 1.79332C38.0949 0.5625 36.8041 0 35.4901 0C34.1016 0 32.8204 0.635977 31.9752 1.7458C31.964 1.76039 31.9586 1.77756 31.9477 1.79227C30.7939 1.7751 29.6454 2.2166 28.8089 3.04957C28.1687 3.68643 27.7491 4.48295 27.5899 5.34815C25.3965 5.75297 23.6029 7.88801 24.0765 10.5018C24.8988 9.4916 26.1481 8.84766 27.5173 8.84766C29.0796 8.84766 29.9958 9.65695 30.1733 9.74672C30.9323 9.17314 31.8504 8.84766 32.8325 8.84766C33.7913 8.84766 34.7155 9.1885 35.4901 9.7844C36.2641 9.18832 37.1873 8.84766 38.1477 8.84766C39.1066 8.84766 40.0329 9.16729 40.7952 9.73986C41.0052 9.64049 41.9731 8.84766 43.463 8.84766C44.8587 8.84766 46.1111 9.49699 46.923 10.5217C47.2036 9.00381 46.6994 7.60031 45.7071 6.61775C45.0652 5.98266 44.2623 5.50775 43.3895 5.34897Z" fill="#F4F4F4"/>
<path d="M1 34.5V52H5.1C7.825 52 9.075 50.35 9.075 47.675V38.85C9.075 36.15 7.825 34.5 5.1 34.5H1ZM2.95 50.225V36.275H5.05C6.475 36.275 7.15 37.15 7.15 38.75V47.75C7.15 49.35 6.475 50.225 5.075 50.225H2.95ZM14.5121 47.775C14.5121 50.425 15.8371 52.175 18.5121 52.175C21.2121 52.175 22.5371 50.425 22.5371 47.775V38.725C22.5371 36.05 21.2121 34.325 18.5121 34.325C15.8371 34.325 14.5121 36.05 14.5121 38.725V47.775ZM16.4371 38.625C16.4371 37.05 17.1121 36.1 18.5121 36.1C19.9371 36.1 20.5871 37.05 20.5871 38.625V47.875C20.5871 49.475 19.9371 50.4 18.5121 50.4C17.1121 50.4 16.4371 49.475 16.4371 47.875V38.625ZM28.1289 34.5V52H32.1539C34.8789 52 36.1539 50.525 36.1539 47.9V46.425C36.1539 44.5 35.5039 43.15 33.8039 42.675C35.3289 42.2 35.8539 41.05 35.8539 39.2V38.375C35.8539 35.8 34.7789 34.5 32.0539 34.5H28.1289ZM30.0789 41.925V36.275H32.0039C33.4039 36.275 33.9289 37.025 33.9289 38.575V39.6C33.9289 41.425 33.1289 41.925 31.5789 41.925H30.0789ZM30.0789 50.225V43.7H31.7789C33.4539 43.7 34.2289 44.35 34.2289 46.3V47.85C34.2289 49.475 33.5789 50.225 32.1539 50.225H30.0789ZM41.6689 34.5V52H43.6189V44.525H44.9939C46.6189 44.525 47.5439 45.15 47.5439 47.125V49.875C47.5439 51.05 47.6439 51.5 47.8689 52H49.8439C49.5189 51.4 49.4939 50.675 49.4939 49.9V47.175C49.4939 45.3 48.8939 44 47.2939 43.525C48.7939 43.05 49.4689 41.85 49.4689 39.925V38.5C49.4689 35.9 48.3189 34.5 45.5689 34.5H41.6689ZM43.6189 42.75V36.275H45.5189C46.9689 36.275 47.5439 37.1 47.5439 38.675V40.35C47.5439 42.25 46.6189 42.75 45.0689 42.75H43.6189ZM55.2578 34.5V52H57.2078V34.5H55.2578ZM66.0629 52H67.9879V45.725L71.7129 34.5H69.8629L67.1129 43.1L64.3879 34.5H62.3629L66.0629 45.725V52Z" fill="#F4F4F4"/>
<path d="M16.18 64.05C17.17 64.05 18.06 63.72 18.67 63.07L18.35 62.74C17.75 63.33 17.02 63.58 16.2 63.58C14.41 63.58 13.06 62.26 13.06 60.5C13.06 58.74 14.41 57.42 16.2 57.42C17.02 57.42 17.75 57.66 18.35 58.25L18.67 57.92C18.06 57.27 17.17 56.95 16.18 56.95C14.1 56.95 12.55 58.46 12.55 60.5C12.55 62.54 14.1 64.05 16.18 64.05ZM21.6782 64H22.1882V57H21.6782V64ZM31.1174 57V63.08L26.3574 57H25.9274V64H26.4374V57.92L31.2074 64H31.6274V57H31.1174ZM35.882 63.54V60.67H39.612V60.22H35.882V57.46H40.052V57H35.372V64H40.202V63.54H35.882ZM50.4814 64L50.4714 57H50.0514L46.9214 62.41L43.7914 57H43.3614V64H43.8614V58.03L46.7914 63.07H47.0414L49.9714 58.01L49.9814 64H50.4814ZM59.452 64H60.002L56.782 57H56.272L53.052 64H53.602L54.492 62.03H58.552L59.452 64ZM54.692 61.6L56.522 57.56L58.362 61.6H54.692Z" fill="#F4F4F4"/>
</svg>
