<svg width="34" height="28" viewBox="0 0 34 28" fill="none" xmlns="http://www.w3.org/2000/svg">
<g id="Iconly/Light/Setting">
<g id="Setting">
<path id="Path_33946" fill-rule="evenodd" clip-rule="evenodd" d="M28.3415 8.39796L27.5137 7.04232C26.8133 5.89524 25.2423 5.48825 24.0017 6.1325V6.1325C23.4111 6.44792 22.7089 6.53288 22.05 6.36863C21.3911 6.20439 20.8297 5.80444 20.4894 5.25697C20.2705 4.90897 20.1547 4.51373 20.1538 4.11123V4.11123C20.1796 3.46614 19.922 2.83863 19.4399 2.37163C18.9578 1.90464 18.2921 1.63794 17.5945 1.63229L15.9025 1.61795C15.2191 1.61214 14.5615 1.85859 14.0754 2.30276C13.5893 2.74693 13.3147 3.3522 13.3124 3.98464V3.98464C13.2805 5.29018 12.1215 6.32904 10.7103 6.31694C10.2754 6.30907 9.8503 6.19508 9.47809 5.98648V5.98648C8.24911 5.32129 6.67109 5.70157 5.95045 6.8366L5.03668 8.20033C4.31691 9.33393 4.72356 10.7935 5.9463 11.4653V11.4653C6.74113 11.8987 7.22609 12.6914 7.2185 13.5447C7.2109 14.3981 6.7119 15.1824 5.90947 15.6023V15.6023C4.67655 16.2488 4.24356 17.6977 4.94197 18.8399V18.8399L5.78202 20.2071C6.10997 20.7657 6.66485 21.1806 7.32389 21.3599C7.98292 21.5393 8.69177 21.4683 9.29358 21.1626V21.1626C9.88531 20.8496 10.5878 20.7685 11.245 20.9371C11.9022 21.1058 12.4596 21.5104 12.7933 22.0609C13.0122 22.4089 13.128 22.8041 13.1289 23.2066V23.2066C13.1172 24.5257 14.2633 25.6049 15.6889 25.617L17.3808 25.6313C18.8016 25.6434 19.9647 24.5908 19.9832 23.2762V23.2762C19.9855 22.6418 20.2618 22.0348 20.7506 21.5903C21.2394 21.1458 21.9001 20.9007 22.5856 20.9096C23.0194 20.924 23.4427 21.0375 23.8178 21.2401V21.2401C25.0435 21.9071 26.6205 21.5322 27.3453 20.4014V20.4014L28.2468 19.0375C28.5958 18.4938 28.6961 17.8435 28.5253 17.2307C28.3546 16.6179 27.927 16.0931 27.3371 15.7726V15.7726C26.7473 15.452 26.3197 14.9273 26.1489 14.3144C25.9782 13.7016 26.0785 13.0513 26.4275 12.5076C26.6546 12.1479 26.9812 11.8508 27.3739 11.647V11.647C28.601 10.9964 29.0325 9.55239 28.3414 8.40939V8.40939L28.3415 8.39796Z" stroke="#EA0042" stroke-width="1.5" stroke-linecap="round" stroke-linejoin="round"/>
<circle id="Ellipse_737" r="3.5" transform="matrix(0.999964 0.00848007 -0.00890158 0.99996 16.7436 13.7803)" stroke="#645BA3" stroke-width="1.5" stroke-linecap="round" stroke-linejoin="round"/>
</g>
</g>
</svg>
