<svg width="31" height="27" viewBox="0 0 31 27" fill="none" xmlns="http://www.w3.org/2000/svg">
<path d="M5.01026 13.5C4.45231 13.5 3.99607 13.047 4.03777 12.4906C4.24887 9.67446 5.33917 6.98576 7.16763 4.81138C9.21352 2.37844 12.0523 0.745483 15.184 0.200142C18.3157 -0.345198 21.5394 0.23206 24.2872 1.83024C27.0351 3.42842 29.1309 5.94499 30.2054 8.9367C31.2799 11.9284 31.2642 15.2033 30.1611 18.1846C29.0581 21.1659 26.9383 23.6623 24.1753 25.2341C21.4123 26.806 18.1832 27.3524 15.0569 26.7771C12.2628 26.263 9.711 24.8824 7.75636 22.8441C7.37018 22.4414 7.43394 21.8016 7.8644 21.4466C8.29485 21.0916 8.92857 21.1564 9.32002 21.554C10.968 23.2278 13.0965 24.3619 15.4226 24.7899C18.081 25.2791 20.8267 24.8145 23.1762 23.4779C25.5257 22.1413 27.3282 20.0186 28.2662 17.4835C29.2041 14.9484 29.2175 12.1636 28.3038 9.61968C27.3901 7.07574 25.608 4.93581 23.2714 3.57683C20.9348 2.21785 18.1936 1.72699 15.5306 2.19071C12.8677 2.65443 10.4537 4.04299 8.71406 6.11179C7.1919 7.92192 6.27135 10.1512 6.06494 12.491C6.0159 13.0468 5.56821 13.5 5.01026 13.5Z" fill="#EA0042"/>
<path d="M18 8V14.0714L21 18" stroke="#645BA3" stroke-width="1.5" stroke-linecap="round" stroke-linejoin="round"/>
<path d="M4.54645 17.5246L0.784314 10.4706C0.429057 9.80448 0.911746 9 1.66667 9H10.1315C10.9302 9 11.4066 9.89015 10.9635 10.5547L6.26086 17.6087C5.8414 18.2379 4.90231 18.1918 4.54645 17.5246Z" fill="#EA0042"/>
</svg>
