<svg width="35" height="28" viewBox="0 0 35 28" fill="none" xmlns="http://www.w3.org/2000/svg">
<path d="M20.1979 1.72961V5.56128" stroke="#645BA3" stroke-width="1.5" stroke-linecap="round" stroke-linejoin="round"/>
<path d="M20.1979 23.1201V26.3248" stroke="#645BA3" stroke-width="1.5" stroke-linecap="round" stroke-linejoin="round"/>
<path d="M20.1979 17.6806V10.0474" stroke="#645BA3" stroke-width="1.5" stroke-linecap="round" stroke-linejoin="round"/>
<path fill-rule="evenodd" clip-rule="evenodd" d="M27.2743 26.6666C29.9314 26.6666 32.0837 24.359 32.0837 21.51V17.4052C30.3254 17.4052 28.9093 15.8869 28.9093 14.0016C28.9093 12.1164 30.3254 10.5964 32.0837 10.5964L32.0821 6.49C32.0821 3.64094 29.9284 1.33331 27.2727 1.33331H7.72791C5.07225 1.33331 2.91851 3.64094 2.91851 6.49L2.91699 10.7302C4.67527 10.7302 6.09132 12.1164 6.09132 14.0016C6.09132 15.8869 4.67527 17.4052 2.91699 17.4052V21.51C2.91699 24.359 5.0692 26.6666 7.72639 26.6666H27.2743Z" stroke="#EA0042" stroke-width="1.5" stroke-linecap="round" stroke-linejoin="round"/>
</svg>
