<svg width="24" height="24" viewBox="0 0 24 24" fill="none" xmlns="http://www.w3.org/2000/svg">
<path d="M12 0C5.37256 0 0 5.37256 0 12C0 18.6274 5.37256 24 12 24C18.6274 24 24 18.6274 24 12C24 5.37256 18.6274 0 12 0ZM19.2565 8.79984C19.2621 8.9415 19.2651 9.08342 19.2651 9.22607C19.2651 14.3521 15.3644 19.6542 8.83691 19.6542C6.84154 19.6542 4.8987 19.0849 3.21858 18.0072C3.18347 17.9849 3.16898 17.9414 3.18298 17.9024C3.19697 17.8636 3.2365 17.8396 3.27701 17.8442C3.55887 17.8779 3.84712 17.8945 4.13316 17.8945C5.68561 17.8945 7.15531 17.4145 8.3984 16.5039C6.90832 16.3782 5.62766 15.3698 5.16706 13.9313C5.15748 13.9013 5.16436 13.8687 5.18498 13.8451C5.20585 13.8215 5.23777 13.8112 5.26822 13.8169C5.68119 13.8952 6.10103 13.9004 6.50566 13.8346C4.96892 13.357 3.88886 11.9175 3.88886 10.2786L3.88935 10.231C3.89009 10.1998 3.90703 10.1713 3.93404 10.1559C3.9608 10.1402 3.99419 10.1399 4.0212 10.1551C4.42189 10.3776 4.86531 10.5205 5.32027 10.5752C4.43712 9.8713 3.91857 8.80426 3.91857 7.66281C3.91857 7.00432 4.09289 6.35712 4.42287 5.79118C4.43761 5.76589 4.46363 5.74969 4.4926 5.74748C4.52182 5.74453 4.55006 5.7573 4.56847 5.77989C6.37602 7.99697 9.0348 9.36209 11.878 9.53764C11.8306 9.29899 11.8065 9.05297 11.8065 8.80475C11.8065 6.75192 13.4766 5.08211 15.5292 5.08211C16.5383 5.08211 17.5135 5.4968 18.2125 6.22159C19.0004 6.06101 19.751 5.77129 20.4443 5.36029C20.476 5.34138 20.5158 5.34433 20.545 5.36716C20.5735 5.39024 20.5852 5.42854 20.574 5.4639C20.339 6.19875 19.8808 6.83982 19.2653 7.30263C19.845 7.20172 20.4075 7.03132 20.9425 6.7939C20.9783 6.77745 21.0208 6.78776 21.0466 6.81796C21.0721 6.84841 21.0743 6.89187 21.0522 6.92477C20.5649 7.65422 19.9609 8.28497 19.2565 8.79984Z" fill="#F4F4F4" fill-opacity="0.8"/>
</svg>
